<?xml version="1.0" ?><svg data-name="Layer 1" id="Layer_1" viewBox="0 0 512 512" xmlns="http://www.w3.org/2000/svg"><defs><style>.cls-1{fill:#e54033;}.cls-2{fill:#fff;}.cls-3{fill:#c9c9c9;}</style></defs><g data-name="Fork Knife Icon-2" id="Fork_Knife_Icon-2"><circle class="cls-1" cx="256" cy="256" r="256"/><g id="Fork-2"><path class="cls-2" d="M245.6,84.61V185.52a50.78,50.78,0,0,1-38,49.16l10.17,180.93a23,23,0,0,1-45.87,3.46,22.2,22.2,0,0,1,0-3.46L182,234.68a50.78,50.78,0,0,1-38-49.16V84.61a10.38,10.38,0,0,1,20.75,0v72.05a9.86,9.86,0,0,0,19.72,0v-72A10.36,10.36,0,1,1,205.18,84c0,.21,0,.43,0,.64v72.05a9.85,9.85,0,0,0,19.69.5V84.61a10.38,10.38,0,0,1,20.75,0Z"/></g><g id="Knife-2"><path class="cls-2" d="M353.68,71.33V283.17H326.09a1.09,1.09,0,0,1,.06-.44c1.91-14.17-10.88-27.33-28.33-29a42,42,0,0,0-10.14.27,5.56,5.56,0,0,1-6.63-4.23,5.3,5.3,0,0,1-.13-1.38c.24-32.74,6.17-76.64,29.83-121.69a261.28,261.28,0,0,1,39.81-56.19C351.56,69.39,353.68,70,353.68,71.33Z"/><path class="cls-3" d="M355.76,283.17a3.43,3.43,0,0,1,3.43,3.42V418.87c0,12.64-9.55,23.74-22.16,24.51A23.66,23.66,0,0,1,312,421.22c0-.49,0-1,0-1.47V286.59a3.43,3.43,0,0,1,3.43-3.42Z"/></g></g></svg>